<?xml version="1.0" encoding="iso-8859-1"?>
<!-- Uploaded to: SVG Repo, www.svgrepo.com, Generator: SVG Repo Mixer Tools -->
<svg fill="#000000" height="800px" width="800px" version="1.1" id="Layer_1" xmlns="http://www.w3.org/2000/svg" xmlns:xlink="http://www.w3.org/1999/xlink" 
	 viewBox="0 0 330 330" xml:space="preserve">
<g id="XMLID_71_">
	<path id="XMLID_85_" d="M240.607,184.393c-5.859-5.857-15.356-5.857-21.214,0.001l-30,30.001
		c-2.813,2.813-4.394,6.628-4.394,10.607c0,3.978,1.581,7.793,4.394,10.606l30,29.999C222.323,268.536,226.162,270,230,270
		c3.84,0,7.679-1.465,10.607-4.394c5.857-5.858,5.857-15.355,0-21.213l-19.393-19.392l19.393-19.395
		C246.465,199.749,246.465,190.251,240.607,184.393z"/>
	<polygon id="XMLID_86_" points="250,0 20,0 60,30 135,86.25 	"/>
	<path id="XMLID_87_" d="M270,130.145V22.5L240,45l-96,72c-2.666,2-5.834,3-9,3s-6.334-1-9-3L0,22.5V195c0,8.284,6.716,15,15,15
		h106.076c-0.704,4.901-1.076,9.907-1.076,15c0,57.897,47.104,105,105,105s105-47.103,105-105
		C330,183.198,305.443,147.027,270,130.145z M225,300c-41.356,0-75-33.645-75-75s33.644-75,75-75s75,33.645,75,75
		S266.355,300,225,300z"/>
</g>
</svg>